PathFileType	4	(X/Y/Z)	markers.trc																																																																																																																																																																
DataRate	CameraRate	NumFrames	NumMarkers	Units	OrigDataRate	OrigDataStartFrame	OrigNumFrames																																																																																																																																																												
200	200	6	54	mm	200	1061	100																																																																																																																																																												
Frame#	Time	FHD			LBHD			RBHD			C7			T10			CLAV			LSHO			LUUPA			LMUPA			LDUPA			LLEP			LMEP			LRAD			LUL			LRFIN			RSHO			RUPA1			RMUPA			RDUPA			RLEP			RMEP			RRAD			RUL			RUFIN			RASI			USACR			LSACR			RSACR			LTHI1			LTHI2			LTHI3			LTHI4			LTIB1			LTIB2			LTIB3			LTIB4			LLMAL			LHEE			LMT1			LMT2			RTHI			RTHI2			RTHI3			RTHI4			RLFC			RTIB1			RTIB2			RTIB3			RTIB4			RLMAL			RHEE			RMT1			RMT2			RMT5		
		X1	Y1	Z1	X2	Y2	Z2	X3	Y3	Z3	X4	Y4	Z4	X5	Y5	Z5	X6	Y6	Z6	X7	Y7	Z7	X8	Y8	Z8	X9	Y9	Z9	X10	Y10	Z10	X11	Y11	Z11	X12	Y12	Z12	X13	Y13	Z13	X14	Y14	Z14	X15	Y15	Z15	X16	Y16	Z16	X17	Y17	Z17	X18	Y18	Z18	X19	Y19	Z19	X20	Y20	Z20	X21	Y21	Z21	X22	Y22	Z22	X23	Y23	Z23	X24	Y24	Z24	X25	Y25	Z25	X26	Y26	Z26	X27	Y27	Z27	X28	Y28	Z28	X29	Y29	Z29	X30	Y30	Z30	X31	Y31	Z31	X32	Y32	Z32	X33	Y33	Z33	X34	Y34	Z34	X35	Y35	Z35	X36	Y36	Z36	X37	Y37	Z37	X38	Y38	Z38	X39	Y39	Z39	X40	Y40	Z40	X41	Y41	Z41	X42	Y42	Z42	X43	Y43	Z43	X44	Y44	Z44	X45	Y45	Z45	X46	Y46	Z46	X47	Y47	Z47	X48	Y48	Z48	X49	Y49	Z49	X50	Y50	Z50	X51	Y51	Z51	X52	Y52	Z52	X53	Y53	Z53	X54	Y54	Z54
																																																																																																																																																																			
1061	5.3	-256.28713	1589.510605	349.855762	-434.504851	1583.341501	259.91612	-395.51629	1572.633649	379.555464	-479.926685	1447.128599	296.829499	-649.008235	1138.976783	276.848813	-368.933949	1320.551221	290.265909	-389.874158	1380.435224	145.902484	-489.508937	1240.851772	30.504509	-471.295413	1198.579408	45.795559	-516.664619	1180.717312	10.277485	-584.284039	1085.132186	-20.042919	-624.025616	1075.092786	43.330838	-493.808	852.119478	39.295841	-545.132765	820.04152	-4.115813	-440.699638	823.128601	5.610161	-430.138765	1386.295222	450.384172	-518.166197	1241.383525	536.071418	-493.816513	1202.142294	530.20546	-545.100915	1181.73064	554.28874	-588.612515	1050.201999	573.824611	-606.578534	1037.097149	506.641872	-354.852228	940.371631	523.043512	-384.402671	886.469274	555.659847	-298.87393	936.026734	578.452589	-523.030576	937.815889	390.645798	-685.558206	1056.302522	281.125134	-696.159713	1023.363708	255.753163	-694.779381	1028.448235	314.540286	-560.879196	699.37148	76.264061	-513.345309	628.768257	70.077172	-469.31752	634.915371	86.68844	-531.940673	569.818099	71.347395	-635.404137	409.918642	131.74914	-673.61837	476.2663	87.654993	-680.231271	440.074364	110.313201	-755.301036	451.19321	152.899108	-895.318096	533.884726	154.539242	-921.027314	613.819385	207.926547	-967.400348	396.0599	217.044695	-967.994806	395.543195	170.2795	-532.38285	707.990424	463.700717	-481.22302	668.140703	460.867675	-449.034296	677.206851	453.198593	-484.306312	585.37373	435.329581	-431.74333	489.661078	413.488948	-441.747418	279.969992	347.576196	-528.661566	219.145069	378.112584	-488.333226	207.36325	357.65766	-496.52942	166.567481	320.676517	-579.118344	92.163298	345.078515	-654.482497	50.665977	299.801137	-425.874453	57.195421	279.631904	-427.58379	55.577191	320.403504	-467.649111	37.074928	378.401218
1062	5.305	-226.581371	1590.053744	349.554195	-405.05988	1583.550218	259.994739	-365.762955	1572.946838	379.587067	-450.638981	1446.851749	296.947489	-618.179008	1138.001077	276.286706	-338.866728	1320.157203	289.655334	-361.079218	1379.268953	144.620495	-465.545064	1242.724482	29.469557	-448.062674	1199.771218	43.450143	-494.632678	1183.733367	8.777071	-564.708726	1089.884116	-21.406534	-604.445588	1080.960289	41.90798	-487.894922	851.336471	34.791438	-540.913082	822.833649	-9.371718	-436.456967	819.601225	0.746011	-400.518606	1386.084821	450.271147	-479.897149	1237.123886	535.626855	-452.988851	1199.43325	529.761885	-502.645397	1175.929875	554.796885	-536.033416	1040.946427	573.949982	-554.630172	1026.808149	507.554375	-295.51851	952.962563	517.542428	-319.008135	896.613772	550.609977	-237.926779	953.769327	571.602147	-493.413709	937.798842	392.492087	-654.797457	1055.46475	279.926339	-665.104944	1022.348509	254.533827	-664.303796	1027.738654	313.333653	-518.414293	702.156011	77.378451	-466.727077	634.532746	71.712255	-423.436589	642.983114	89.185601	-481.933889	574.704338	72.190859	-577.205444	412.166156	132.317116	-616.598628	477.336116	87.643032	-622.526597	441.114446	110.282782	-698.486073	449.639931	151.848008	-841.47176	527.883025	152.486823	-871.824306	606.616845	205.647706	-908.695315	387.174069	213.339117	-907.86593	386.785928	166.496218	-506.475596	706.218842	464.116796	-456.464572	664.991603	461.227622	-424.110931	673.187507	453.486095	-461.942923	582.28984	435.992751	-412.258877	484.862468	413.902678	-431.953684	275.727876	347.286223	-521.233012	218.627876	378.36772	-481.691015	205.045737	357.347508	-492.274324	164.991452	320.431633	-577.894986	94.012786	345.617571	-654.470054	53.564018	300.099396	-425.952343	57.388183	279.944146	-427.733225	55.643407	320.800981	-467.968626	37.148311	378.579556
1063	5.31	-196.966193	1590.79696	349.197978	-375.703367	1584.078063	260.016947	-336.106469	1573.566852	379.566435	-421.444767	1446.867092	297.085467	-587.184583	1137.321236	275.832583	-308.870633	1320.095716	288.960205	-332.469939	1378.684998	143.377408	-441.929451	1245.570059	28.344044	-425.044872	1201.909379	40.725868	-472.961624	1187.819323	7.12814	-544.877475	1095.508246	-22.973519	-584.718312	1087.766404	40.180595	-481.272975	852.663114	31.142389	-535.440097	827.491288	-13.882742	-431.384822	818.400078	-3.035768	-370.693026	1386.423533	450.023377	-441.373685	1234.064105	535.110349	-412.023502	1198.049159	529.225093	-460.056995	1171.599587	555.065732	-482.960283	1033.893534	573.624675	-502.137221	1018.788734	508.022402	-237.704422	968.190029	511.634486	-255.030925	910.029479	545.156987	-178.85217	974.275545	564.08568	-463.577389	937.805191	394.146112	-623.773208	1054.8191	278.838564	-633.77931	1021.595935	253.358967	-633.583211	1027.148821	312.173071	-476.275431	705.776367	78.660849	-420.497314	641.453521	73.586525	-378.085687	652.241605	91.906563	-432.169993	580.911147	73.408518	-518.967666	415.16332	133.199571	-559.892585	478.926865	87.987868	-564.898562	442.577428	110.507186	-641.745646	447.97649	150.986363	-788.045844	520.778286	150.454569	-823.344053	597.89337	203.298016	-849.451066	377.066776	209.827414	-847.294483	376.860404	162.896409	-480.92689	704.274466	464.47606	-432.235958	661.551184	461.606526	-399.718607	668.748621	453.781964	-440.338711	579.023279	436.653943	-393.970039	479.663882	414.41658	-422.720066	271.678412	347.204871	-514.180772	218.297456	378.664447	-475.406628	203.066441	357.266631	-488.165398	163.764654	320.360312	-576.510558	96.186272	346.168692	-654.248997	57.082527	300.365786	-425.903375	57.521933	280.279625	-427.745679	55.642166	321.205805	-468.22607	37.197463	378.722836
1064	5.315	-167.43333	1591.749353	348.79858	-346.432989	1584.958261	259.99944	-306.535374	1574.491747	379.506446	-392.337318	1447.154217	297.247615	-555.999687	1136.866556	275.503999	-278.916886	1320.410378	288.175725	-304.070573	1378.74449	142.153727	-418.560614	1249.34663	27.173515	-402.162641	1204.97543	37.762727	-451.48199	1192.890969	5.406258	-524.753986	1101.964168	-24.710206	-564.793374	1095.488862	38.208472	-473.766998	855.893385	28.318242	-528.609048	833.770601	-17.673035	-425.281108	819.293732	-5.78097	-340.62438	1387.351475	449.616881	-402.646245	1232.224755	534.538685	-371.018444	1197.969332	528.614561	-417.493108	1168.747703	555.09393	-429.711622	1029.12828	572.913891	-449.366895	1013.112362	508.038338	-181.698376	985.86035	505.364435	-192.827717	926.518545	539.305287	-121.965353	997.278587	555.964245	-433.420494	937.772976	395.544564	-592.450631	1054.345387	277.892036	-602.168335	1021.069931	252.284449	-602.574959	1026.676306	311.111281	-434.520079	710.13915	80.075651	-374.791551	649.398442	75.636682	-333.395523	662.525945	94.773609	-382.837922	588.318543	74.965109	-460.898434	418.901522	134.40624	-503.715733	480.991587	88.669007	-507.550834	444.443351	110.993655	-585.20138	446.247033	150.350109	-734.961793	512.623597	148.475982	-775.401765	587.652331	200.945278	-789.615493	365.906825	206.533217	-786.268282	365.956534	159.510787	-455.69089	702.18296	464.776169	-408.502313	657.856515	462.011984	-375.822845	663.911044	454.116849	-419.450102	575.642942	437.310756	-376.742721	474.235312	415.030489	-413.961187	267.908257	347.359214	-507.457637	218.270508	379.003369	-469.415347	201.520171	357.446306	-484.127858	162.928149	320.470117	-574.940419	98.739573	346.681933	-653.779568	61.268345	300.577356	-425.72436	57.544547	280.591317	-427.617265	55.53677	321.559049	-468.430866	37.240789	378.807427
1065	5.32	-137.975311	1592.927171	348.362546	-317.247094	1586.212592	259.958712	-277.036911	1575.711039	379.414979	-363.310228	1447.685927	297.428632	-524.606126	1136.56049	275.313663	-248.974483	1321.139451	287.29347	-275.893863	1379.477287	140.92425	-395.309496	1253.967061	25.998002	-379.320793	1208.905162	34.708952	-430.005776	1198.814527	3.677821	-504.316982	1109.184502	-26.575612	-544.631857	1104.07649	36.050971	-465.237877	860.817446	26.257787	-520.362885	841.435264	-20.775236	-417.997077	822.054431	-7.574032	-310.2909	1388.882741	449.026442	-363.75258	1231.593362	533.918396	-330.051776	1199.138775	527.938833	-375.06054	1167.339829	554.887232	-376.596572	1026.660523	571.918172	-396.56478	1009.758149	507.626085	-127.75096	1005.712809	498.785513	-132.712565	945.807259	533.077488	-67.557246	1022.457003	547.346518	-402.883603	937.639205	396.668957	-560.813743	1054.016964	277.112241	-570.274077	1020.725047	251.361656	-571.249954	1026.312498	310.196639	-393.182069	715.147842	81.586155	-329.714652	658.213348	77.80974	-289.461856	673.653954	97.716438	-334.100452	596.783276	76.81349	-403.187408	423.336574	135.918615	-448.243245	483.472066	89.666198	-450.656871	446.686965	111.734265	-528.947427	444.485284	149.952206	-682.110314	503.473154	146.586063	-727.784756	575.912449	198.653226	-729.125603	353.872852	203.475207	-724.750495	354.26381	156.368656	-430.704948	700.003108	465.012447	-385.199499	653.994619	462.441649	-352.365841	658.766227	454.504915	-399.201799	572.256162	437.976733	-360.390916	468.792594	415.731321	-405.563536	264.518765	347.742735	-500.954154	218.64626	379.399076	-463.611261	200.477661	357.877942	-480.06812	162.540437	320.755078	-573.138847	101.728881	347.152843	-653.007184	66.173715	300.753457	-425.419572	57.430499	280.853663	-427.348279	55.313594	321.827324	-468.584761	37.295039	378.82382
1066	5.325	-108.584966	1594.35244	347.89277	-288.142967	1587.848661	259.909067	-247.598106	1577.208708	379.29483	-334.353359	1448.435711	297.614463	-492.989885	1136.337697	275.269167	-219.013319	1322.314629	286.302127	-247.937507	1380.879908	139.66722	-372.036079	1259.313174	24.848658	-356.421727	1213.597325	31.70691	-408.35352	1205.430036	1.992418	-483.561288	1117.086749	-28.518122	-524.20768	1113.455742	33.767409	-455.57736	867.226227	24.870588	-510.688426	850.260546	-23.228644	-409.436537	826.46053	-8.531294	-279.692926	1391.008411	448.228482	-324.728206	1232.132997	533.245606	-289.18464	1201.484619	527.192422	-332.805593	1167.310509	554.450494	-323.884489	1026.426814	570.738018	-343.952773	1008.629694	506.833951	-76.064198	1027.431488	491.954543	-74.947787	967.559136	526.512911	-15.887032	1049.451805	538.386845	-371.94733	937.351479	397.549506	-528.859617	1053.808408	276.519906	-538.106887	1020.51991	250.631945	-539.589231	1026.046708	309.469284	-352.278196	720.707834	83.153076	-285.34281	667.732844	80.064638	-246.346335	685.434647	100.674756	-286.091816	606.146102	78.899084	-345.992451	428.394053	137.680675	-393.595033	486.300555	90.95112	-394.346052	449.276751	112.700608	-473.036537	442.713723	149.777325	-629.358921	493.386289	144.823595	-680.265261	562.71348	196.479787	-667.910421	341.151326	200.66736	-662.683908	341.969082	153.4955	-405.89392	697.816836	465.181105	-362.240928	650.085186	462.884961	-329.269255	653.457746	454.94777	-379.494827	568.994513	438.675129	-344.723434	463.553291	416.501888	-397.392094	261.614151	348.326639	-494.516068	219.5032	379.879906	-457.856896	199.988736	358.529583	-475.875934	162.664037	321.207033	-571.029888	105.197411	347.619526	-651.858484	71.851282	300.954103	-424.997377	57.177393	281.05672	-426.939017	54.972369	321.998054	-468.678743	37.375998	378.782478
